<svg xmlns="http://www.w3.org/2000/svg" xmlns:xlink="http://www.w3.org/1999/xlink" width="40.924" height="40.967" viewBox="0 0 40.924 40.967"><defs><style>.a{fill:none;stroke:#009ad9;stroke-linecap:round;stroke-linejoin:round;stroke-width:1.5px;}.b{filter:url(#a);}</style><filter id="a" x="0" y="0" width="40.924" height="40.967" filterUnits="userSpaceOnUse"><feOffset dy="3" input="SourceAlpha"/><feGaussianBlur stdDeviation="3" result="b"/><feFlood flood-opacity="0.251"/><feComposite operator="in" in2="b"/><feComposite in="SourceGraphic"/></filter></defs><g class="b" transform="matrix(1, 0, 0, 1, 0, 0)"><path class="a" d="M24.59,18.648v3.231a2.154,2.154,0,0,1-2.348,2.154,21.316,21.316,0,0,1-9.3-3.307,21,21,0,0,1-6.463-6.463A21.316,21.316,0,0,1,3.177,4.925,2.154,2.154,0,0,1,5.32,2.577H8.551A2.154,2.154,0,0,1,10.706,4.43a13.83,13.83,0,0,0,.754,3.027,2.154,2.154,0,0,1-.485,2.273L9.607,11.1A17.234,17.234,0,0,0,16.07,17.56l1.368-1.368a2.154,2.154,0,0,1,2.273-.485,13.83,13.83,0,0,0,3.027.754A2.154,2.154,0,0,1,24.59,18.648Z" transform="translate(6.58 4.17)"/></g></svg>