<svg xmlns="http://www.w3.org/2000/svg" width="896.614" height="896.641" viewBox="0 0 896.614 896.641"><defs><style>.a{fill:#fff;opacity:0.46;}</style></defs><path class="a" d="M77.206,526.5l142.68-142.645L301.322,465.3l-40.688,40.837L219.886,465.3l-61.12,61.2,61.12,61.12,142.645-142.6L403.261,485.8,219.886,669.156ZM831.255,384.044,647.757,567.42l40.829,40.793,142.67-142.688,61.085,61.163-61.085,61.093-40.829-40.687L749.7,587.781,831.255,669.3,973.82,526.687ZM464.381,506.133l40.811-40.793L362.53,322.765l61.084-61.1,40.767,40.758,40.811-40.758-81.578-81.578L280.987,322.765Zm122.256,40.75-40.731,40.74,142.68,142.617L627.43,791.36l-40.793-40.723L545.906,791.36l81.524,81.55L770.048,730.239ZM444.073,363.47l40.73,40.777,40.688-40.777L668.206,506.133,708.858,465.3,566.381,322.765l61.048-61.128,61.156,61.128-40.829,40.7,40.829,40.777,81.462-81.481L627.43,180.034Zm81.418,326.1L382.9,546.883l-40.723,40.687L484.8,730.239l-61.19,61.138-61.058-61.138,40.714-40.67-40.714-40.758-81.568,81.427L423.614,872.91l183.4-183.341-40.723-40.758Zm81.525-203.824-40.723-40.723L444.08,567.279l40.732,40.758ZM525.491,78.2l-61.1,61.164,61.1,61.118,61.146-61.118Zm0,774.35-61.1,61.084,61.1,61.208,61.146-61.208Z" transform="translate(-77.206 -78.2)"/></svg>