<svg xmlns="http://www.w3.org/2000/svg" width="37.264" height="35.884" viewBox="0 0 37.264 35.884"><defs><style>.a{opacity:0.14;}.b{fill:red;}</style></defs><g transform="translate(-414.809 -5)"><rect class="a" width="37.264" height="35.884" rx="3" transform="translate(414.809 5)"/><path class="b" d="M327.231,86.714a3.89,3.89,0,0,0-.707-1.771,2.543,2.543,0,0,0-1.787-.751c-2.494-.178-6.229-.178-6.229-.178h0s-3.735,0-6.229.178a2.542,2.542,0,0,0-1.787.751,3.89,3.89,0,0,0-.707,1.771,27,27,0,0,0-.178,2.883V90.95a27.018,27.018,0,0,0,.178,2.884,3.838,3.838,0,0,0,.707,1.764,3,3,0,0,0,1.965.763c1.425.138,6.057.178,6.057.178s3.741,0,6.234-.183a2.555,2.555,0,0,0,1.787-.757,3.839,3.839,0,0,0,.707-1.764,26.986,26.986,0,0,0,.178-2.884V89.6A26.861,26.861,0,0,0,327.231,86.714Zm-10.577,5.873v-5.01l4.821,2.533Z" transform="translate(114.861 -67.973)"/></g></svg>