<svg xmlns="http://www.w3.org/2000/svg" xmlns:xlink="http://www.w3.org/1999/xlink" width="58.923" height="43.512" viewBox="0 0 58.923 43.512"><defs><style>.a{fill:none;stroke:#009ad9;stroke-linecap:round;stroke-linejoin:round;stroke-width:1.5px;}.b{filter:url(#g);}.c{filter:url(#e);}.d{filter:url(#c);}.e{filter:url(#a);}</style><filter id="a" x="0" y="0" width="58.923" height="32.399" filterUnits="userSpaceOnUse"><feOffset dy="3" input="SourceAlpha"/><feGaussianBlur stdDeviation="3" result="b"/><feFlood flood-opacity="0.251"/><feComposite operator="in" in2="b"/><feComposite in="SourceGraphic"/></filter><filter id="c" x="9.255" y="10.138" width="40.414" height="30.543" filterUnits="userSpaceOnUse"><feOffset dy="3" input="SourceAlpha"/><feGaussianBlur stdDeviation="3" result="d"/><feFlood flood-opacity="0.251"/><feComposite operator="in" in2="d"/><feComposite in="SourceGraphic"/></filter><filter id="e" x="6.078" y="8.438" width="19.5" height="30.518" filterUnits="userSpaceOnUse"><feOffset dy="3" input="SourceAlpha"/><feGaussianBlur stdDeviation="3" result="f"/><feFlood flood-opacity="0.251"/><feComposite operator="in" in2="f"/><feComposite in="SourceGraphic"/></filter><filter id="g" x="4.843" y="20.215" width="21.916" height="23.296" filterUnits="userSpaceOnUse"><feOffset dy="3" input="SourceAlpha"/><feGaussianBlur stdDeviation="3" result="h"/><feFlood flood-opacity="0.251"/><feComposite operator="in" in2="h"/><feComposite in="SourceGraphic"/></filter></defs><g transform="translate(9.75 6.75)"><g class="e" transform="matrix(1, 0, 0, 1, -9.75, -6.75)"><path class="a" d="M275.036,365.988l-19.712,6.449-19.712-6.449,19.712-6.449Z" transform="translate(-225.86 -352.79)"/></g><g class="d" transform="matrix(1, 0, 0, 1, -9.75, -6.75)"><path class="a" d="M255.355,381.166v7.918c1.748,1.838,5.771,3.125,10.457,3.125s8.709-1.287,10.457-3.125v-7.918" transform="translate(-236.35 -364.28)"/></g><g class="c" transform="matrix(1, 0, 0, 1, -9.75, -6.75)"><line class="a" y2="11.018" transform="translate(15.83 15.19)"/></g><g class="b" transform="matrix(1, 0, 0, 1, -9.75, -6.75)"><path class="a" d="M245.945,406.459h2.416l-1.208-3.8Z" transform="translate(-231.35 -375.7)"/></g></g></svg>