<svg xmlns="http://www.w3.org/2000/svg" width="25.255" height="25.232" viewBox="0 0 25.255 25.232">
  <path id="Icon_ionic-logo-whatsapp" data-name="Icon ionic-logo-whatsapp" d="M14.121,2.25A11.4,11.4,0,0,0,2.673,13.609a11.242,11.242,0,0,0,1.643,5.865L2.25,25.568l6.338-2.013a11.467,11.467,0,0,0,16.981-9.946A11.464,11.464,0,0,0,23.2,6.689,11.319,11.319,0,0,0,14.121,2.25Zm5.692,15.673a2.957,2.957,0,0,1-2.025,1.3c-.537.028-.552.416-3.479-.855a11.944,11.944,0,0,1-4.826-4.563A5.614,5.614,0,0,1,8.4,10.767a3.244,3.244,0,0,1,1.114-2.38,1.121,1.121,0,0,1,.793-.334c.23,0,.38-.007.55,0s.426-.036.648.554.752,2.038.82,2.186a.53.53,0,0,1,.005.509,1.988,1.988,0,0,1-.31.473c-.153.164-.321.367-.458.492-.152.139-.311.29-.151.587a8.76,8.76,0,0,0,1.55,2.068,7.987,7.987,0,0,0,2.3,1.526c.287.156.458.139.636-.048s.762-.82.968-1.1.4-.228.663-.121,1.674.862,1.961,1.018.478.236.547.359A2.4,2.4,0,0,1,19.813,17.923Z" transform="translate(-1.063 -1.5)" fill="none" stroke="#009ad9" stroke-width="1.5"/>
</svg>
