<svg xmlns="http://www.w3.org/2000/svg" width="37.264" height="35.884" viewBox="0 0 37.264 35.884"><defs><style>.a{opacity:0.14;}.b{fill:#0077b5;}</style></defs><g transform="translate(-496.236 -5)"><rect class="a" width="37.264" height="35.884" rx="3" transform="translate(496.236 5)"/><path class="b" d="M515.451,85.249h3.572V96.734h-3.572Zm1.79-1.565a2.076,2.076,0,1,1,2.069-2.084v.008a2.068,2.068,0,0,1-2.061,2.076ZM532.4,96.734h-3.573V91.153c0-1.331,0-3.009-1.85-3.009s-2.144,1.414-2.144,2.918v5.678h-3.565V85.249h3.407V86.82h.045a3.76,3.76,0,0,1,3.385-1.858c3.61,0,4.279,2.384,4.279,5.476Z" transform="translate(-9.258 -64.871)"/></g></svg>